<svg version="1.1" viewBox="0.0 0.0 587.0 322.0" fill="none" stroke="none" stroke-linecap="square" stroke-miterlimit="10" width="587" height="322" xmlns:xlink="http://www.w3.org/1999/xlink" xmlns="http://www.w3.org/2000/svg"><path fill="#ffffff" d="M0 0L587.0 0L587.0 322.0L0 322.0L0 0Z" fill-rule="nonzero"/><path fill="#678958" d="M293.5 99.4175C330.05054 99.4175 360.87717 118.47531 365.39453 143.86452L365.39453 165.59952C360.87717 140.21031 330.05054 121.1525 293.5 121.1525Z" fill-rule="nonzero"/><path fill="#93c47d" d="M293.5 48.7025C366.60107 48.7025 428.25433 86.81812 437.28906 137.59654L365.39453 143.86452C360.87717 118.47531 330.05054 99.4175 293.5 99.4175Z" fill-rule="nonzero"/><path fill="#9d4747" d="M227.94542 262.32367C179.27019 245.03868 148.6 210.07375 148.6 171.8675L148.6 150.1325C148.6 188.33875 179.27019 223.30368 227.94542 240.58867Z" fill-rule="nonzero"/><path fill="#9d4747" d="M221.05 150.1325C221.05 122.12338 253.48697 99.4175 293.5 99.4175L293.5 121.1525C253.48697 121.1525 221.05 143.85838 221.05 171.8675Z" fill-rule="nonzero"/><path fill="#e06666" d="M227.94542 240.58867C168.15515 219.35663 136.98035 172.18509 152.57372 126.541435C168.16708 80.89779 226.45619 48.7025 293.5 48.7025L293.5 99.4175C259.9781 99.4175 230.83354 115.515144 223.03687 138.33698C215.24017 161.1588 230.82758 184.74457 260.72272 195.36058Z" fill-rule="nonzero"/><path fill="#ac7d4b" d="M438.4 171.8675C438.4 207.12595 412.24286 239.85477 369.31937 258.30386C326.39587 276.75293 272.8651 278.27502 227.94542 262.32367L227.94542 240.58867C272.8651 256.54004 326.39587 255.01794 369.31937 236.56885C412.24286 218.11977 438.4 185.39095 438.4 150.1325Z" fill-rule="nonzero"/><path fill="#ac7d4b" d="M365.39453 143.86452C365.7645 145.94382 365.95 148.03716 365.95 150.1325L365.95 171.8675C365.95 169.77216 365.7645 167.67882 365.39453 165.59952Z" fill-rule="nonzero"/><path fill="#f6b26b" d="M437.28906 137.59654C443.91092 174.81375 420.65393 211.55132 376.81918 233.11697C332.9844 254.68265 275.72693 257.55627 227.94542 240.58867L260.72272 195.36058C284.61346 203.84439 313.24222 202.40758 335.15958 191.62474C357.07697 180.8419 368.70544 162.47313 365.39453 143.86452Z" fill-rule="nonzero"/><path fill="#1a1a1a" d="M20.81875 123.22099L19.178125 123.22099L19.178125 117.01787Q18.271875 117.86162 17.053125 118.26787L17.053125 116.76787Q17.69375 116.56474 18.44375 115.97099Q19.209375 115.37724 19.490625 114.59599L20.81875 114.59599L20.81875 123.22099ZM23.63125 121.01787L25.271875 120.84599Q25.35 121.39287 25.69375 121.72099Q26.0375 122.04912 26.490625 122.04912Q27.00625 122.04912 27.365625 121.62724Q27.725 121.20537 27.725 120.36162Q27.725 119.58037 27.365625 119.18974Q27.00625 118.78349 26.44375 118.78349Q25.725 118.78349 25.1625 119.40849L23.834375 119.22099L24.678125 114.75224L29.0375 114.75224L29.0375 116.28349L25.928125 116.28349L25.6625 117.75224Q26.225 117.47099 26.7875 117.47099Q27.88125 117.47099 28.646875 118.26787Q29.4125 119.06474 29.4125 120.33037Q29.4125 121.39287 28.803125 122.23662Q27.959375 123.36162 26.475 123.36162Q25.2875 123.36162 24.5375 122.73662Q23.7875 122.09599 23.63125 121.01787ZM35.678123 123.22099L33.1625 117.00224L34.896873 117.00224L36.06875 120.17412L36.4125 121.23662Q36.5375 120.83037 36.56875 120.70537Q36.6625 120.43974 36.75625 120.17412L37.928123 117.00224L39.63125 117.00224L37.1625 123.22099L35.678123 123.22099ZM46.81875 123.22099L45.178123 123.22099L45.178123 117.01787Q44.271873 117.86162 43.053123 118.26787L43.053123 116.76787Q43.69375 116.56474 44.44375 115.97099Q45.209373 115.37724 45.490623 114.59599L46.81875 114.59599L46.81875 123.22099ZM49.63125 121.01787L51.271873 120.84599Q51.35 121.39287 51.69375 121.72099Q52.0375 122.04912 52.490623 122.04912Q53.00625 122.04912 53.365623 121.62724Q53.725 121.20537 53.725 120.36162Q53.725 119.58037 53.365623 119.18974Q53.00625 118.78349 52.44375 118.78349Q51.725 118.78349 51.1625 119.40849L49.834373 119.22099L50.678123 114.75224L55.0375 114.75224L55.0375 116.28349L51.928123 116.28349L51.6625 117.75224Q52.225 117.47099 52.7875 117.47099Q53.88125 117.47099 54.646873 118.26787Q55.4125 119.06474 55.4125 120.33037Q55.4125 121.39287 54.803123 122.23662Q53.959373 123.36162 52.475 123.36162Q51.2875 123.36162 50.5375 122.73662Q49.7875 122.09599 49.63125 121.01787Z" fill-rule="nonzero"/><path fill="#9e9e9e" d="M19.834375 140.221L19.834375 138.48662L16.31875 138.48662L16.31875 137.04912L20.053125 131.596L21.428125 131.596L21.428125 137.04912L22.50625 137.04912L22.50625 138.48662L21.428125 138.48662L21.428125 140.221L19.834375 140.221ZM19.834375 137.04912L19.834375 134.11162L17.865625 137.04912L19.834375 137.04912ZM29.178125 138.68974L29.178125 140.221L23.396875 140.221Q23.490625 139.346 23.959375 138.58037Q24.428125 137.79912 25.81875 136.51787Q26.928125 135.48662 27.178125 135.11162Q27.521875 134.596 27.521875 134.096Q27.521875 133.54912 27.225 133.25224Q26.928125 132.95537 26.4125 132.95537Q25.896875 132.95537 25.584375 133.26787Q25.2875 133.58037 25.240625 134.29912L23.6 134.14287Q23.740625 132.7835 24.50625 132.18974Q25.2875 131.596 26.44375 131.596Q27.725 131.596 28.44375 132.2835Q29.178125 132.971 29.178125 133.98662Q29.178125 134.56474 28.959375 135.096Q28.75625 135.61162 28.303125 136.18974Q28.00625 136.56474 27.225 137.2835Q26.44375 138.00224 26.240625 138.23662Q26.0375 138.471 25.896875 138.68974L29.178125 138.68974ZM30.959375 140.221L30.959375 138.58037L32.615623 138.58037L32.615623 140.221L30.959375 140.221ZM33.63125 138.01787L35.271873 137.846Q35.35 138.39287 35.69375 138.721Q36.0375 139.04912 36.490623 139.04912Q37.00625 139.04912 37.365623 138.62724Q37.725 138.20537 37.725 137.36162Q37.725 136.58037 37.365623 136.18974Q37.00625 135.7835 36.44375 135.7835Q35.725 135.7835 35.1625 136.4085L33.834373 136.221L34.678123 131.75224L39.0375 131.75224L39.0375 133.2835L35.928123 133.2835L35.6625 134.75224Q36.225 134.471 36.7875 134.471Q37.88125 134.471 38.646873 135.26787Q39.4125 136.06474 39.4125 137.33037Q39.4125 138.39287 38.803123 139.23662Q37.959373 140.36162 36.475 140.36162Q35.2875 140.36162 34.5375 139.73662Q33.7875 139.096 33.63125 138.01787ZM40.615623 133.75224Q40.615623 132.596 41.115623 132.04912Q41.63125 131.48662 42.50625 131.48662Q43.396873 131.48662 43.896873 132.04912Q44.4125 132.596 44.4125 133.75224Q44.4125 134.9085 43.896873 135.471Q43.396873 136.01787 42.5375 136.01787Q41.63125 136.01787 41.115623 135.471Q40.615623 134.9085 40.615623 133.75224ZM41.9125 133.73662Q41.9125 134.58037 42.1 134.86162Q42.240623 135.08037 42.50625 135.08037Q42.771873 135.08037 42.9125 134.86162Q43.1 134.58037 43.1 133.73662Q43.1 132.9085 42.9125 132.62724Q42.771873 132.4085 42.50625 132.4085Q42.240623 132.4085 42.1 132.61162Q41.9125 132.9085 41.9125 133.73662ZM43.75625 140.54912L42.5375 140.54912L47.115623 131.48662L48.303123 131.48662L43.75625 140.54912ZM46.4125 138.29912Q46.4125 137.14287 46.9125 136.58037Q47.428123 136.01787 48.303123 136.01787Q49.19375 136.01787 49.69375 136.58037Q50.209373 137.14287 50.209373 138.29912Q50.209373 139.45537 49.69375 140.01787Q49.19375 140.56474 48.334373 140.56474Q47.428123 140.56474 46.9125 140.01787Q46.4125 139.45537 46.4125 138.29912ZM47.69375 138.2835Q47.69375 139.12724 47.896873 139.4085Q48.0375 139.62724 48.303123 139.62724Q48.56875 139.62724 48.709373 139.4085Q48.896873 139.12724 48.896873 138.2835Q48.896873 137.45537 48.709373 137.1585Q48.56875 136.95537 48.303123 136.95537Q48.0375 136.95537 47.896873 137.1585Q47.69375 137.45537 47.69375 138.2835Z" fill-rule="nonzero"/><path stroke="#757575" stroke-width="1.0" stroke-linecap="butt" d="M16.1 127.72099L142.6 127.72099L159.62003 127.72099" fill-rule="nonzero"/><path fill="#9e9e9e" d="M161.62003 127.72099C161.62003 126.616425 160.7246 125.72099 159.62003 125.72099C158.51546 125.72099 157.62003 126.616425 157.62003 127.72099C157.62003 128.82556 158.51546 129.721 159.62003 129.721C160.7246 129.721 161.62003 128.82556 161.62003 127.72099" fill-rule="nonzero"/><path fill="#1a1a1a" d="M545.4313 71.205734L547.0719 71.03386Q547.15 71.580734 547.4938 71.90886Q547.8375 72.236984 548.29065 72.236984Q548.8063 72.236984 549.16565 71.81511Q549.525 71.393234 549.525 70.549484Q549.525 69.768234 549.16565 69.37761Q548.8063 68.97136 548.2438 68.97136Q547.525 68.97136 546.9625 69.59636L545.6344 69.40886L546.47815 64.94011L550.8375 64.94011L550.8375 66.47136L547.72815 66.47136L547.4625 67.94011Q548.025 67.65886 548.5875 67.65886Q549.6813 67.65886 550.4469 68.455734Q551.2125 69.25261 551.2125 70.518234Q551.2125 71.580734 550.60315 72.424484Q549.7594 73.549484 548.275 73.549484Q547.0875 73.549484 546.3375 72.924484Q545.5875 72.28386 545.4313 71.205734ZM557.47815 73.40886L554.9625 67.19011L556.6969 67.19011L557.8688 70.361984L558.2125 71.424484Q558.3375 71.018234 558.3688 70.893234Q558.4625 70.62761 558.5563 70.361984L559.72815 67.19011L561.4313 67.19011L558.9625 73.40886L557.47815 73.40886ZM564.4313 71.205734L566.0719 71.03386Q566.15 71.580734 566.4938 71.90886Q566.8375 72.236984 567.29065 72.236984Q567.8063 72.236984 568.16565 71.81511Q568.525 71.393234 568.525 70.549484Q568.525 69.768234 568.16565 69.37761Q567.8063 68.97136 567.2438 68.97136Q566.525 68.97136 565.9625 69.59636L564.6344 69.40886L565.47815 64.94011L569.8375 64.94011L569.8375 66.47136L566.72815 66.47136L566.4625 67.94011Q567.025 67.65886 567.5875 67.65886Q568.6813 67.65886 569.4469 68.455734Q570.2125 69.25261 570.2125 70.518234Q570.2125 71.580734 569.60315 72.424484Q568.7594 73.549484 567.275 73.549484Q566.0875 73.549484 565.3375 72.924484Q564.5875 72.28386 564.4313 71.205734Z" fill-rule="nonzero"/><path fill="#9e9e9e" d="M543.97815 88.87761L543.97815 90.40886L538.1969 90.40886Q538.29065 89.53386 538.7594 88.768234Q539.22815 87.986984 540.6188 86.705734Q541.72815 85.674484 541.97815 85.299484Q542.3219 84.78386 542.3219 84.28386Q542.3219 83.736984 542.025 83.44011Q541.72815 83.143234 541.2125 83.143234Q540.6969 83.143234 540.3844 83.455734Q540.0875 83.768234 540.04065 84.486984L538.4 84.330734Q538.54065 82.97136 539.3063 82.37761Q540.0875 81.78386 541.2438 81.78386Q542.525 81.78386 543.2438 82.47136Q543.97815 83.15886 543.97815 84.174484Q543.97815 84.75261 543.7594 85.28386Q543.5563 85.799484 543.10315 86.37761Q542.8063 86.75261 542.025 87.47136Q541.2438 88.19011 541.04065 88.424484Q540.8375 88.65886 540.6969 88.87761L543.97815 88.87761ZM545.35315 88.12761L546.9469 87.94011Q547.025 88.549484 547.35315 88.87761Q547.6969 89.19011 548.16565 89.19011Q548.6813 89.19011 549.025 88.799484Q549.3688 88.40886 549.3688 87.75261Q549.3688 87.143234 549.025 86.78386Q548.6969 86.40886 548.22815 86.40886Q547.9 86.40886 547.4625 86.53386L547.65 85.19011Q548.3219 85.205734 548.66565 84.90886Q549.025 84.59636 549.025 84.080734Q549.025 83.65886 548.7594 83.40886Q548.5094 83.143234 548.0719 83.143234Q547.65 83.143234 547.35315 83.44011Q547.0563 83.72136 546.9938 84.28386L545.47815 84.03386Q545.6344 83.25261 545.9469 82.78386Q546.275 82.31511 546.8375 82.049484Q547.41565 81.78386 548.1188 81.78386Q549.3375 81.78386 550.0719 82.549484Q550.66565 83.19011 550.66565 83.986984Q550.66565 85.111984 549.4313 85.78386Q550.1813 85.955734 550.6188 86.50261Q551.0563 87.049484 551.0563 87.830734Q551.0563 88.955734 550.22815 89.75261Q549.4 90.549484 548.1813 90.549484Q547.0094 90.549484 546.2438 89.87761Q545.47815 89.205734 545.35315 88.12761ZM552.7594 90.40886L552.7594 88.768234L554.41565 88.768234L554.41565 90.40886L552.7594 90.40886ZM558.1969 81.78386Q559.4469 81.78386 560.15 82.674484Q560.97815 83.72136 560.97815 86.174484Q560.97815 88.611984 560.1344 89.674484Q559.4469 90.549484 558.1969 90.549484Q556.9469 90.549484 556.16565 89.59636Q555.4 88.62761 555.4 86.15886Q555.4 83.72136 556.2438 82.65886Q556.9469 81.78386 558.1969 81.78386ZM558.1969 83.143234Q557.9 83.143234 557.66565 83.34636Q557.4313 83.53386 557.29065 84.018234Q557.1344 84.65886 557.1344 86.174484Q557.1344 87.69011 557.275 88.25261Q557.4313 88.81511 557.66565 89.00261Q557.9 89.19011 558.1969 89.19011Q558.4938 89.19011 558.72815 89.00261Q558.9625 88.81511 559.0875 88.31511Q559.2594 87.69011 559.2594 86.174484Q559.2594 84.65886 559.10315 84.09636Q558.9625 83.53386 558.72815 83.34636Q558.4938 83.143234 558.1969 83.143234ZM562.41565 83.94011Q562.41565 82.78386 562.91565 82.236984Q563.4313 81.674484 564.3063 81.674484Q565.1969 81.674484 565.6969 82.236984Q566.2125 82.78386 566.2125 83.94011Q566.2125 85.09636 565.6969 85.65886Q565.1969 86.205734 564.3375 86.205734Q563.4313 86.205734 562.91565 85.65886Q562.41565 85.09636 562.41565 83.94011ZM563.7125 83.924484Q563.7125 84.768234 563.9 85.049484Q564.04065 85.268234 564.3063 85.268234Q564.5719 85.268234 564.7125 85.049484Q564.9 84.768234 564.9 83.924484Q564.9 83.09636 564.7125 82.81511Q564.5719 82.59636 564.3063 82.59636Q564.04065 82.59636 563.9 82.799484Q563.7125 83.09636 563.7125 83.924484ZM565.5563 90.736984L564.3375 90.736984L568.91565 81.674484L570.10315 81.674484L565.5563 90.736984ZM568.2125 88.486984Q568.2125 87.330734 568.7125 86.768234Q569.22815 86.205734 570.10315 86.205734Q570.9938 86.205734 571.4938 86.768234Q572.0094 87.330734 572.0094 88.486984Q572.0094 89.643234 571.4938 90.205734Q570.9938 90.75261 570.1344 90.75261Q569.22815 90.75261 568.7125 90.205734Q568.2125 89.643234 568.2125 88.486984ZM569.4938 88.47136Q569.4938 89.31511 569.6969 89.59636Q569.8375 89.81511 570.10315 89.81511Q570.3688 89.81511 570.5094 89.59636Q570.6969 89.31511 570.6969 88.47136Q570.6969 87.643234 570.5094 87.34636Q570.3688 87.143234 570.10315 87.143234Q569.8375 87.143234 569.6969 87.34636Q569.4938 87.643234 569.4938 88.47136Z" fill-rule="nonzero"/><path stroke="#757575" stroke-width="1.0" stroke-linecap="butt" d="M570.9 77.90886L444.4 77.90886L384.62344 77.90886" fill-rule="nonzero"/><path fill="#9e9e9e" d="M386.62344 77.90886C386.62344 76.80429 385.72803 75.90886 384.62344 75.90886C383.51886 75.90886 382.62344 76.80429 382.62344 77.90886C382.62344 79.01343 383.51886 79.90886 384.62344 79.90886C385.72803 79.90886 386.62344 79.01343 386.62344 77.90886" fill-rule="nonzero"/><path fill="#1a1a1a" d="M535.6188 224.46776L533.97815 224.46776L533.97815 218.26463Q533.0719 219.10838 531.85315 219.51463L531.85315 218.01463Q532.4938 217.81151 533.2438 217.21776Q534.0094 216.62401 534.29065 215.84276L535.6188 215.84276L535.6188 224.46776ZM541.1969 215.84276Q542.4469 215.84276 543.15 216.73338Q543.97815 217.78026 543.97815 220.23338Q543.97815 222.67088 543.1344 223.73338Q542.4469 224.60838 541.1969 224.60838Q539.9469 224.60838 539.16565 223.65526Q538.4 222.68651 538.4 220.21776Q538.4 217.78026 539.2438 216.71776Q539.9469 215.84276 541.1969 215.84276ZM541.1969 217.20213Q540.9 217.20213 540.66565 217.40526Q540.4313 217.59276 540.29065 218.07713Q540.1344 218.71776 540.1344 220.23338Q540.1344 221.74901 540.275 222.31151Q540.4313 222.87401 540.66565 223.06151Q540.9 223.24901 541.1969 223.24901Q541.4938 223.24901 541.72815 223.06151Q541.9625 222.87401 542.0875 222.37401Q542.2594 221.74901 542.2594 220.23338Q542.2594 218.71776 542.10315 218.15526Q541.9625 217.59276 541.72815 217.40526Q541.4938 217.20213 541.1969 217.20213ZM550.47815 224.46776L547.9625 218.24901L549.6969 218.24901L550.8688 221.42088L551.2125 222.48338Q551.3375 222.07713 551.3688 221.95213Q551.4625 221.68651 551.5563 221.42088L552.72815 218.24901L554.4313 218.24901L551.9625 224.46776L550.47815 224.46776ZM561.6188 224.46776L559.97815 224.46776L559.97815 218.26463Q559.0719 219.10838 557.85315 219.51463L557.85315 218.01463Q558.4938 217.81151 559.2438 217.21776Q560.0094 216.62401 560.29065 215.84276L561.6188 215.84276L561.6188 224.46776ZM567.1969 215.84276Q568.4469 215.84276 569.15 216.73338Q569.97815 217.78026 569.97815 220.23338Q569.97815 222.67088 569.1344 223.73338Q568.4469 224.60838 567.1969 224.60838Q565.9469 224.60838 565.16565 223.65526Q564.4 222.68651 564.4 220.21776Q564.4 217.78026 565.2438 216.71776Q565.9469 215.84276 567.1969 215.84276ZM567.1969 217.20213Q566.9 217.20213 566.66565 217.40526Q566.4313 217.59276 566.29065 218.07713Q566.1344 218.71776 566.1344 220.23338Q566.1344 221.74901 566.275 222.31151Q566.4313 222.87401 566.66565 223.06151Q566.9 223.24901 567.1969 223.24901Q567.4938 223.24901 567.72815 223.06151Q567.9625 222.87401 568.0875 222.37401Q568.2594 221.74901 568.2594 220.23338Q568.2594 218.71776 568.10315 218.15526Q567.9625 217.59276 567.72815 217.40526Q567.4938 217.20213 567.1969 217.20213Z" fill-rule="nonzero"/><path fill="#9e9e9e" d="M538.35315 239.18651L539.9469 238.99901Q540.025 239.60838 540.35315 239.93651Q540.6969 240.24901 541.16565 240.24901Q541.6813 240.24901 542.025 239.85838Q542.3688 239.46776 542.3688 238.81151Q542.3688 238.20213 542.025 237.84276Q541.6969 237.46776 541.22815 237.46776Q540.9 237.46776 540.4625 237.59276L540.65 236.24901Q541.3219 236.26463 541.66565 235.96776Q542.025 235.65526 542.025 235.13963Q542.025 234.71776 541.7594 234.46776Q541.5094 234.20213 541.0719 234.20213Q540.65 234.20213 540.35315 234.49901Q540.0563 234.78026 539.9938 235.34276L538.47815 235.09276Q538.6344 234.31151 538.9469 233.84276Q539.275 233.37401 539.8375 233.10838Q540.41565 232.84276 541.1188 232.84276Q542.3375 232.84276 543.0719 233.60838Q543.66565 234.24901 543.66565 235.04588Q543.66565 236.17088 542.4313 236.84276Q543.1813 237.01463 543.6188 237.56151Q544.0563 238.10838 544.0563 238.88963Q544.0563 240.01463 543.22815 240.81151Q542.4 241.60838 541.1813 241.60838Q540.0094 241.60838 539.2438 240.93651Q538.47815 240.26463 538.35315 239.18651ZM548.6344 241.46776L548.6344 239.73338L545.1188 239.73338L545.1188 238.29588L548.85315 232.84276L550.22815 232.84276L550.22815 238.29588L551.3063 238.29588L551.3063 239.73338L550.22815 239.73338L550.22815 241.46776L548.6344 241.46776ZM548.6344 238.29588L548.6344 235.35838L546.66565 238.29588L548.6344 238.29588ZM552.7594 241.46776L552.7594 239.82713L554.41565 239.82713L554.41565 241.46776L552.7594 241.46776ZM558.6344 241.46776L558.6344 239.73338L555.1188 239.73338L555.1188 238.29588L558.85315 232.84276L560.22815 232.84276L560.22815 238.29588L561.3063 238.29588L561.3063 239.73338L560.22815 239.73338L560.22815 241.46776L558.6344 241.46776ZM558.6344 238.29588L558.6344 235.35838L556.66565 238.29588L558.6344 238.29588ZM562.41565 234.99901Q562.41565 233.84276 562.91565 233.29588Q563.4313 232.73338 564.3063 232.73338Q565.1969 232.73338 565.6969 233.29588Q566.2125 233.84276 566.2125 234.99901Q566.2125 236.15526 565.6969 236.71776Q565.1969 237.26463 564.3375 237.26463Q563.4313 237.26463 562.91565 236.71776Q562.41565 236.15526 562.41565 234.99901ZM563.7125 234.98338Q563.7125 235.82713 563.9 236.10838Q564.04065 236.32713 564.3063 236.32713Q564.5719 236.32713 564.7125 236.10838Q564.9 235.82713 564.9 234.98338Q564.9 234.15526 564.7125 233.87401Q564.5719 233.65526 564.3063 233.65526Q564.04065 233.65526 563.9 233.85838Q563.7125 234.15526 563.7125 234.98338ZM565.5563 241.79588L564.3375 241.79588L568.91565 232.73338L570.10315 232.73338L565.5563 241.79588ZM568.2125 239.54588Q568.2125 238.38963 568.7125 237.82713Q569.22815 237.26463 570.10315 237.26463Q570.9938 237.26463 571.4938 237.82713Q572.0094 238.38963 572.0094 239.54588Q572.0094 240.70213 571.4938 241.26463Q570.9938 241.81151 570.1344 241.81151Q569.22815 241.81151 568.7125 241.26463Q568.2125 240.70213 568.2125 239.54588ZM569.4938 239.53026Q569.4938 240.37401 569.6969 240.65526Q569.8375 240.87401 570.10315 240.87401Q570.3688 240.87401 570.5094 240.65526Q570.6969 240.37401 570.6969 239.53026Q570.6969 238.70213 570.5094 238.40526Q570.3688 238.20213 570.10315 238.20213Q569.8375 238.20213 569.6969 238.40526Q569.4938 238.70213 569.4938 239.53026Z" fill-rule="nonzero"/><path stroke="#757575" stroke-width="1.0" stroke-linecap="butt" d="M570.9 228.96776L444.4 228.96776L372.65323 228.96776" fill-rule="nonzero"/><path fill="#9e9e9e" d="M374.65323 228.96776C374.65323 227.86319 373.75778 226.96776 372.65323 226.96776C371.54865 226.96776 370.65323 227.86319 370.65323 228.96776C370.65323 230.07233 371.54865 230.96776 372.65323 230.96776C373.75778 230.96776 374.65323 230.07233 374.65323 228.96776" fill-rule="nonzero"/></svg>