<svg version="1.1" viewBox="0.0 0.0 587.0 363.0" fill="none" stroke="none" stroke-linecap="square" stroke-miterlimit="10" width="587" height="363" xmlns:xlink="http://www.w3.org/1999/xlink" xmlns="http://www.w3.org/2000/svg"><path fill="#ffffff" d="M0 0L587.0 0L587.0 363.0L0 363.0L0 0Z" fill-rule="nonzero"/><path fill="#678958" d="M293.5 112.07625C334.7045 112.07625 369.45627 133.56068 374.5488 162.18268L374.5488 186.68518C369.45627 158.06317 334.7045 136.57875 293.5 136.57875Z" fill-rule="nonzero"/><path fill="#93c47d" d="M293.5 54.90375C375.90897 54.90375 445.4125 97.872604 455.59763 155.11661L374.5488 162.18268C369.45627 133.56068 334.7045 112.07625 293.5 112.07625Z" fill-rule="nonzero"/><path fill="#9d4747" d="M219.5984 295.72513C164.7254 276.23926 130.15 236.82227 130.15 193.75125L130.15 169.24875C130.15 212.31976 164.7254 251.73676 219.5984 271.22263Z" fill-rule="nonzero"/><path fill="#9d4747" d="M211.825 169.24875C211.825 137.67325 248.39214 112.07625 293.5 112.07625L293.5 136.57875C248.39214 136.57875 211.825 162.17575 211.825 193.75125Z" fill-rule="nonzero"/><path fill="#e06666" d="M219.5984 271.22263C152.1951 247.28714 117.050835 194.10927 134.62968 142.65385C152.20854 91.19844 217.91956 54.90375 293.5 54.90375L293.5 112.07625C255.70978 112.07625 222.85426 130.22359 214.06485 155.95131C205.27542 181.67902 222.84755 208.26794 256.5492 220.23569Z" fill-rule="nonzero"/><path fill="#ac7d4b" d="M456.85 193.75125C456.85 233.49911 427.36227 270.3953 378.9734 291.19348C330.58447 311.99167 270.2377 313.70755 219.5984 295.72513L219.5984 271.22263C270.2377 289.20505 330.58447 287.48917 378.9734 266.69098C427.36227 245.89278 456.85 208.99663 456.85 169.24875Z" fill-rule="nonzero"/><path fill="#ac7d4b" d="M374.5488 162.18268C374.96588 164.52672 375.175 166.8866 375.175 169.24875L375.175 193.75125C375.175 191.3891 374.96588 189.02922 374.5488 186.68518Z" fill-rule="nonzero"/><path fill="#f6b26b" d="M455.59763 155.11661C463.06262 197.07265 436.84433 238.48798 387.42813 262.79956C338.01193 287.11118 273.4639 290.3507 219.5984 271.22263L256.5492 220.23569C283.48196 229.79973 315.75595 228.17996 340.46408 216.02415C365.17218 203.86836 378.2813 183.1607 374.5488 162.18268Z" fill-rule="nonzero"/><path fill="#1a1a1a" d="M23.665625 138.4836L21.74375 138.4836L21.74375 131.24922Q20.68125 132.2336 19.259375 132.70235L19.259375 130.95235Q20.009375 130.71797 20.884375 130.03047Q21.775 129.34297 22.103125 128.4211L23.665625 128.4211L23.665625 138.4836ZM26.775 135.90547L28.68125 135.70235Q28.775 136.3586 29.165625 136.7336Q29.571875 137.1086 30.103125 137.1086Q30.696875 137.1086 31.11875 136.62422Q31.540625 136.13985 31.540625 135.15547Q31.540625 134.2336 31.11875 133.78047Q30.7125 133.31172 30.040625 133.31172Q29.2125 133.31172 28.55625 134.0461L27.009375 133.81172L27.99375 128.59297L33.071877 128.59297L33.071877 130.38985L29.446875 130.38985L29.15 132.09297Q29.790625 131.78047 30.4625 131.78047Q31.728125 131.78047 32.61875 132.71797Q33.509377 133.63985 33.509377 135.12422Q33.509377 136.3586 32.790627 137.32735Q31.821875 138.65547 30.0875 138.65547Q28.696875 138.65547 27.821875 137.9211Q26.946875 137.1711 26.775 135.90547ZM41.15 138.4836L38.228127 131.21797L40.24375 131.21797L41.603127 134.9211L42.009377 136.1711Q42.165627 135.68672 42.196877 135.5461Q42.30625 135.2336 42.415627 134.9211L43.790627 131.21797L45.759377 131.21797L42.884377 138.4836L41.15 138.4836ZM56.665627 138.4836L54.74375 138.4836L54.74375 131.24922Q53.68125 132.2336 52.259377 132.70235L52.259377 130.95235Q53.009377 130.71797 53.884377 130.03047Q54.775 129.34297 55.103127 128.4211L56.665627 128.4211L56.665627 138.4836ZM59.775 135.90547L61.68125 135.70235Q61.775 136.3586 62.165627 136.7336Q62.571877 137.1086 63.103127 137.1086Q63.696877 137.1086 64.11875 136.62422Q64.54063 136.13985 64.54063 135.15547Q64.54063 134.2336 64.11875 133.78047Q63.7125 133.31172 63.040627 133.31172Q62.2125 133.31172 61.55625 134.0461L60.009377 133.81172L60.99375 128.59297L66.07188 128.59297L66.07188 130.38985L62.446877 130.38985L62.15 132.09297Q62.790627 131.78047 63.4625 131.78047Q64.72813 131.78047 65.61875 132.71797Q66.50938 133.63985 66.50938 135.12422Q66.50938 136.3586 65.79063 137.32735Q64.82188 138.65547 63.0875 138.65547Q61.696877 138.65547 60.821877 137.9211Q59.946877 137.1711 59.775 135.90547Z" fill-rule="nonzero"/><path fill="#9e9e9e" d="M22.509375 158.4836L22.509375 156.46797L18.415625 156.46797L18.415625 154.78047L22.759375 148.4211L24.36875 148.4211L24.36875 154.78047L25.61875 154.78047L25.61875 156.46797L24.36875 156.46797L24.36875 158.4836L22.509375 158.4836ZM22.509375 154.78047L22.509375 151.3586L20.2125 154.78047L22.509375 154.78047ZM33.228127 156.70235L33.228127 158.4836L26.49375 158.4836Q26.603125 157.46797 27.15 156.56172Q27.696875 155.65547 29.321875 154.15547Q30.61875 152.95235 30.915625 152.51485Q31.30625 151.9211 31.30625 151.34297Q31.30625 150.70235 30.9625 150.3586Q30.61875 150.01485 30.009375 150.01485Q29.4 150.01485 29.040625 150.37422Q28.696875 150.7336 28.634375 151.57735L26.728125 151.38985Q26.9 149.7961 27.790625 149.1086Q28.696875 148.4211 30.05625 148.4211Q31.540625 148.4211 32.384377 149.21797Q33.228127 150.01485 33.228127 151.20235Q33.228127 151.88985 32.978127 152.49922Q32.74375 153.1086 32.228127 153.78047Q31.86875 154.21797 30.9625 155.06172Q30.05625 155.88985 29.80625 156.1711Q29.571875 156.43672 29.415625 156.70235L33.228127 156.70235ZM35.15 158.4836L35.15 156.56172L37.071877 156.56172L37.071877 158.4836L35.15 158.4836ZM38.775 155.90547L40.68125 155.70235Q40.775 156.3586 41.165627 156.7336Q41.571877 157.1086 42.103127 157.1086Q42.696877 157.1086 43.11875 156.62422Q43.540627 156.13985 43.540627 155.15547Q43.540627 154.2336 43.11875 153.78047Q42.7125 153.31172 42.040627 153.31172Q41.2125 153.31172 40.55625 154.0461L39.009377 153.81172L39.99375 148.59297L45.071877 148.59297L45.071877 150.38985L41.446877 150.38985L41.15 152.09297Q41.790627 151.78047 42.4625 151.78047Q43.728127 151.78047 44.61875 152.71797Q45.509377 153.63985 45.509377 155.12422Q45.509377 156.3586 44.790627 157.32735Q43.821877 158.65547 42.0875 158.65547Q40.696877 158.65547 39.821877 157.9211Q38.946877 157.1711 38.775 155.90547ZM46.759377 150.93672Q46.759377 149.59297 47.353127 148.95235Q47.946877 148.2961 48.946877 148.2961Q49.99375 148.2961 50.5875 148.93672Q51.18125 149.57735 51.18125 150.93672Q51.18125 152.28047 50.5875 152.93672Q49.99375 153.57735 48.99375 153.57735Q47.946877 153.57735 47.353127 152.93672Q46.759377 152.2961 46.759377 150.93672ZM48.259377 150.9211Q48.259377 151.90547 48.478127 152.2336Q48.65 152.4836 48.946877 152.4836Q49.259377 152.4836 49.43125 152.2336Q49.65 151.90547 49.65 150.9211Q49.65 149.95235 49.43125 149.62422Q49.259377 149.3586 48.946877 149.3586Q48.65 149.3586 48.478127 149.6086Q48.259377 149.95235 48.259377 150.9211ZM50.415627 158.87422L48.99375 158.87422L54.3375 148.2961L55.7125 148.2961L50.415627 158.87422ZM53.525 156.2336Q53.525 154.88985 54.103127 154.24922Q54.696877 153.59297 55.728127 153.59297Q56.759377 153.59297 57.353127 154.24922Q57.946877 154.88985 57.946877 156.2336Q57.946877 157.59297 57.353127 158.24922Q56.759377 158.88985 55.74375 158.88985Q54.696877 158.88985 54.103127 158.24922Q53.525 157.59297 53.525 156.2336ZM55.009377 156.2336Q55.009377 157.20235 55.24375 157.53047Q55.415627 157.78047 55.7125 157.78047Q56.025 157.78047 56.18125 157.5461Q56.415627 157.20235 56.415627 156.2336Q56.415627 155.24922 56.196877 154.9211Q56.025 154.6711 55.7125 154.6711Q55.4 154.6711 55.24375 154.9211Q55.009377 155.24922 55.009377 156.2336Z" fill-rule="nonzero"/><path stroke="#757575" stroke-width="1.0" stroke-linecap="butt" d="M18.15 143.9836L124.15 143.9836L142.5732 143.9836" fill-rule="nonzero"/><path fill="#9e9e9e" d="M144.5732 143.9836C144.5732 142.87903 143.67776 141.9836 142.5732 141.9836C141.46863 141.9836 140.5732 142.87903 140.5732 143.9836C140.5732 145.08817 141.46863 145.9836 142.5732 145.9836C143.67776 145.9836 144.5732 145.08817 144.5732 143.9836" fill-rule="nonzero"/><path fill="#1a1a1a" d="M536.475 79.75081L538.3812 79.54768Q538.475 80.20393 538.8656 80.57893Q539.27185 80.95393 539.8031 80.95393Q540.39685 80.95393 540.8187 80.46956Q541.2406 79.98518 541.2406 79.00081Q541.2406 78.07893 540.8187 77.62581Q540.4125 77.15706 539.7406 77.15706Q538.9125 77.15706 538.2562 77.89143L536.70935 77.65706L537.6937 72.43831L542.77185 72.43831L542.77185 74.23518L539.14685 74.23518L538.85 75.93831Q539.4906 75.62581 540.1625 75.62581Q541.4281 75.62581 542.3187 76.56331Q543.20935 77.48518 543.20935 78.96956Q543.20935 80.20393 542.4906 81.17268Q541.52185 82.50081 539.7875 82.50081Q538.39685 82.50081 537.52185 81.76643Q536.64685 81.01643 536.475 79.75081ZM550.85 82.32893L547.9281 75.06331L549.9437 75.06331L551.3031 78.76643L551.70935 80.01643Q551.8656 79.53206 551.89685 79.39143Q552.0062 79.07893 552.1156 78.76643L553.4906 75.06331L555.45935 75.06331L552.58435 82.32893L550.85 82.32893ZM561.475 79.75081L563.3812 79.54768Q563.475 80.20393 563.8656 80.57893Q564.27185 80.95393 564.8031 80.95393Q565.39685 80.95393 565.8187 80.46956Q566.2406 79.98518 566.2406 79.00081Q566.2406 78.07893 565.8187 77.62581Q565.4125 77.15706 564.7406 77.15706Q563.9125 77.15706 563.2562 77.89143L561.70935 77.65706L562.6937 72.43831L567.77185 72.43831L567.77185 74.23518L564.14685 74.23518L563.85 75.93831Q564.4906 75.62581 565.1625 75.62581Q566.4281 75.62581 567.3187 76.56331Q568.20935 77.48518 568.20935 78.96956Q568.20935 80.20393 567.4906 81.17268Q566.52185 82.50081 564.7875 82.50081Q563.39685 82.50081 562.52185 81.76643Q561.64685 81.01643 561.475 79.75081Z" fill-rule="nonzero"/><path fill="#9e9e9e" d="M537.9281 100.54768L537.9281 102.32893L531.1937 102.32893Q531.3031 101.31331 531.85 100.40706Q532.39685 99.50081 534.02185 98.00081Q535.3187 96.79768 535.6156 96.36018Q536.0062 95.76643 536.0062 95.18831Q536.0062 94.54768 535.6625 94.20393Q535.3187 93.86018 534.70935 93.86018Q534.1 93.86018 533.7406 94.21956Q533.39685 94.57893 533.33435 95.42268L531.4281 95.23518Q531.6 93.64143 532.4906 92.95393Q533.39685 92.26643 534.7562 92.26643Q536.2406 92.26643 537.08435 93.06331Q537.9281 93.86018 537.9281 95.04768Q537.9281 95.73518 537.6781 96.34456Q537.4437 96.95393 536.9281 97.62581Q536.5687 98.06331 535.6625 98.90706Q534.7562 99.73518 534.5062 100.01643Q534.27185 100.28206 534.1156 100.54768L537.9281 100.54768ZM539.3812 99.67268L541.2406 99.43831Q541.3187 100.15706 541.70935 100.53206Q542.1 100.90706 542.6625 100.90706Q543.2562 100.90706 543.6625 100.45393Q544.0687 100.00081 544.0687 99.23518Q544.0687 98.51643 543.6781 98.09456Q543.2875 97.67268 542.725 97.67268Q542.35 97.67268 541.85 97.81331L542.0531 96.25081Q542.83435 96.26643 543.2406 95.90706Q543.6625 95.54768 543.6625 94.95393Q543.6625 94.45393 543.35 94.15706Q543.0531 93.84456 542.5531 93.84456Q542.0687 93.84456 541.70935 94.18831Q541.3656 94.53206 541.2875 95.18831L539.52185 94.89143Q539.70935 93.96956 540.0687 93.43831Q540.4437 92.89143 541.1156 92.57893Q541.7875 92.26643 542.6156 92.26643Q544.02185 92.26643 544.8812 93.17268Q545.58435 93.90706 545.58435 94.82893Q545.58435 96.15706 544.14685 96.93831Q545.0062 97.12581 545.52185 97.76643Q546.0375 98.40706 546.0375 99.31331Q546.0375 100.64143 545.0687 101.57893Q544.1 102.50081 542.6781 102.50081Q541.3187 102.50081 540.4125 101.71956Q539.52185 100.93831 539.3812 99.67268ZM547.85 102.32893L547.85 100.40706L549.77185 100.40706L549.77185 102.32893L547.85 102.32893ZM554.6937 92.26643Q556.14685 92.26643 556.975 93.29768Q557.9437 94.53206 557.9437 97.39143Q557.9437 100.23518 556.95935 101.46956Q556.14685 102.50081 554.6937 102.50081Q553.225 102.50081 552.33435 101.37581Q551.4437 100.25081 551.4437 97.36018Q551.4437 94.53206 552.4281 93.29768Q553.2406 92.26643 554.6937 92.26643ZM554.6937 93.86018Q554.35 93.86018 554.0687 94.07893Q553.8031 94.29768 553.64685 94.87581Q553.4437 95.62581 553.4437 97.39143Q553.4437 99.15706 553.6156 99.81331Q553.8031 100.46956 554.0687 100.68831Q554.35 100.90706 554.6937 100.90706Q555.0375 100.90706 555.3031 100.68831Q555.58435 100.46956 555.7406 99.89143Q555.9437 99.15706 555.9437 97.39143Q555.9437 95.62581 555.7562 94.96956Q555.58435 94.29768 555.3031 94.07893Q555.0375 93.86018 554.6937 93.86018ZM559.45935 94.78206Q559.45935 93.43831 560.0531 92.79768Q560.64685 92.14143 561.64685 92.14143Q562.6937 92.14143 563.2875 92.78206Q563.8812 93.42268 563.8812 94.78206Q563.8812 96.12581 563.2875 96.78206Q562.6937 97.42268 561.6937 97.42268Q560.64685 97.42268 560.0531 96.78206Q559.45935 96.14143 559.45935 94.78206ZM560.95935 94.76643Q560.95935 95.75081 561.1781 96.07893Q561.35 96.32893 561.64685 96.32893Q561.95935 96.32893 562.1312 96.07893Q562.35 95.75081 562.35 94.76643Q562.35 93.79768 562.1312 93.46956Q561.95935 93.20393 561.64685 93.20393Q561.35 93.20393 561.1781 93.45393Q560.95935 93.79768 560.95935 94.76643ZM563.1156 102.71956L561.6937 102.71956L567.0375 92.14143L568.4125 92.14143L563.1156 102.71956ZM566.225 100.07893Q566.225 98.73518 566.8031 98.09456Q567.39685 97.43831 568.4281 97.43831Q569.45935 97.43831 570.0531 98.09456Q570.64685 98.73518 570.64685 100.07893Q570.64685 101.43831 570.0531 102.09456Q569.45935 102.73518 568.4437 102.73518Q567.39685 102.73518 566.8031 102.09456Q566.225 101.43831 566.225 100.07893ZM567.70935 100.07893Q567.70935 101.04768 567.9437 101.37581Q568.1156 101.62581 568.4125 101.62581Q568.725 101.62581 568.8812 101.39143Q569.1156 101.04768 569.1156 100.07893Q569.1156 99.09456 568.89685 98.76643Q568.725 98.51643 568.4125 98.51643Q568.1 98.51643 567.9437 98.76643Q567.70935 99.09456 567.70935 100.07893Z" fill-rule="nonzero"/><path stroke="#757575" stroke-width="1.0" stroke-linecap="butt" d="M568.85 87.82893L462.85 87.82893L396.2261 87.82893" fill-rule="nonzero"/><path fill="#9e9e9e" d="M398.2261 87.82893C398.2261 86.724365 397.3307 85.82893 396.2261 85.82893C395.12155 85.82893 394.2261 86.724365 394.2261 87.82893C394.2261 88.9335 395.12155 89.82893 396.2261 89.82893C397.3307 89.82893 398.2261 88.9335 398.2261 87.82893" fill-rule="nonzero"/><path fill="#1a1a1a" d="M525.3656 252.62204L523.4437 252.62204L523.4437 245.38766Q522.3812 246.37204 520.95935 246.84079L520.95935 245.09079Q521.70935 244.85641 522.58435 244.16891Q523.475 243.48141 523.8031 242.55954L525.3656 242.55954L525.3656 252.62204ZM531.6937 242.55954Q533.14685 242.55954 533.975 243.59079Q534.9437 244.82516 534.9437 247.68454Q534.9437 250.52829 533.95935 251.76266Q533.14685 252.79391 531.6937 252.79391Q530.225 252.79391 529.33435 251.66891Q528.4437 250.54391 528.4437 247.65329Q528.4437 244.82516 529.4281 243.59079Q530.2406 242.55954 531.6937 242.55954ZM531.6937 244.15329Q531.35 244.15329 531.0687 244.37204Q530.8031 244.59079 530.64685 245.16891Q530.4437 245.91891 530.4437 247.68454Q530.4437 249.45016 530.6156 250.10641Q530.8031 250.76266 531.0687 250.98141Q531.35 251.20016 531.6937 251.20016Q532.0375 251.20016 532.3031 250.98141Q532.58435 250.76266 532.7406 250.18454Q532.9437 249.45016 532.9437 247.68454Q532.9437 245.91891 532.7562 245.26266Q532.58435 244.59079 532.3031 244.37204Q532.0375 244.15329 531.6937 244.15329ZM542.85 252.62204L539.9281 245.35641L541.9437 245.35641L543.3031 249.05954L543.70935 250.30954Q543.8656 249.82516 543.89685 249.68454Q544.0062 249.37204 544.1156 249.05954L545.4906 245.35641L547.45935 245.35641L544.58435 252.62204L542.85 252.62204ZM558.3656 252.62204L556.4437 252.62204L556.4437 245.38766Q555.3812 246.37204 553.95935 246.84079L553.95935 245.09079Q554.70935 244.85641 555.58435 244.16891Q556.475 243.48141 556.8031 242.55954L558.3656 242.55954L558.3656 252.62204ZM564.6937 242.55954Q566.14685 242.55954 566.975 243.59079Q567.9437 244.82516 567.9437 247.68454Q567.9437 250.52829 566.95935 251.76266Q566.14685 252.79391 564.6937 252.79391Q563.225 252.79391 562.33435 251.66891Q561.4437 250.54391 561.4437 247.65329Q561.4437 244.82516 562.4281 243.59079Q563.2406 242.55954 564.6937 242.55954ZM564.6937 244.15329Q564.35 244.15329 564.0687 244.37204Q563.8031 244.59079 563.64685 245.16891Q563.4437 245.91891 563.4437 247.68454Q563.4437 249.45016 563.6156 250.10641Q563.8031 250.76266 564.0687 250.98141Q564.35 251.20016 564.6937 251.20016Q565.0375 251.20016 565.3031 250.98141Q565.58435 250.76266 565.7406 250.18454Q565.9437 249.45016 565.9437 247.68454Q565.9437 245.91891 565.7562 245.26266Q565.58435 244.59079 565.3031 244.37204Q565.0375 244.15329 564.6937 244.15329Z" fill-rule="nonzero"/><path fill="#9e9e9e" d="M531.3812 269.9658L533.2406 269.7314Q533.3187 270.45016 533.70935 270.82516Q534.1 271.20016 534.6625 271.20016Q535.2562 271.20016 535.6625 270.74704Q536.0687 270.2939 536.0687 269.5283Q536.0687 268.80954 535.6781 268.38766Q535.2875 267.9658 534.725 267.9658Q534.35 267.9658 533.85 268.1064L534.0531 266.5439Q534.83435 266.55954 535.2406 266.20016Q535.6625 265.8408 535.6625 265.24704Q535.6625 264.74704 535.35 264.45016Q535.0531 264.13766 534.5531 264.13766Q534.0687 264.13766 533.70935 264.4814Q533.3656 264.82516 533.2875 265.4814L531.52185 265.18454Q531.70935 264.26266 532.0687 263.7314Q532.4437 263.18454 533.1156 262.87204Q533.7875 262.55954 534.6156 262.55954Q536.02185 262.55954 536.8812 263.4658Q537.58435 264.20016 537.58435 265.12204Q537.58435 266.45016 536.14685 267.2314Q537.0062 267.4189 537.52185 268.05954Q538.0375 268.70016 538.0375 269.6064Q538.0375 270.93454 537.0687 271.87204Q536.1 272.7939 534.6781 272.7939Q533.3187 272.7939 532.4125 272.01266Q531.52185 271.2314 531.3812 269.9658ZM543.20935 272.62204L543.20935 270.6064L539.1156 270.6064L539.1156 268.9189L543.45935 262.55954L545.0687 262.55954L545.0687 268.9189L546.3187 268.9189L546.3187 270.6064L545.0687 270.6064L545.0687 272.62204L543.20935 272.62204ZM543.20935 268.9189L543.20935 265.49704L540.9125 268.9189L543.20935 268.9189ZM547.85 272.62204L547.85 270.70016L549.77185 270.70016L549.77185 272.62204L547.85 272.62204ZM555.20935 272.62204L555.20935 270.6064L551.1156 270.6064L551.1156 268.9189L555.45935 262.55954L557.0687 262.55954L557.0687 268.9189L558.3187 268.9189L558.3187 270.6064L557.0687 270.6064L557.0687 272.62204L555.20935 272.62204ZM555.20935 268.9189L555.20935 265.49704L552.9125 268.9189L555.20935 268.9189ZM559.45935 265.07516Q559.45935 263.7314 560.0531 263.0908Q560.64685 262.43454 561.64685 262.43454Q562.6937 262.43454 563.2875 263.07516Q563.8812 263.7158 563.8812 265.07516Q563.8812 266.4189 563.2875 267.07516Q562.6937 267.7158 561.6937 267.7158Q560.64685 267.7158 560.0531 267.07516Q559.45935 266.43454 559.45935 265.07516ZM560.95935 265.05954Q560.95935 266.0439 561.1781 266.37204Q561.35 266.62204 561.64685 266.62204Q561.95935 266.62204 562.1312 266.37204Q562.35 266.0439 562.35 265.05954Q562.35 264.0908 562.1312 263.76266Q561.95935 263.49704 561.64685 263.49704Q561.35 263.49704 561.1781 263.74704Q560.95935 264.0908 560.95935 265.05954ZM563.1156 273.01266L561.6937 273.01266L567.0375 262.43454L568.4125 262.43454L563.1156 273.01266ZM566.225 270.37204Q566.225 269.0283 566.8031 268.38766Q567.39685 267.7314 568.4281 267.7314Q569.45935 267.7314 570.0531 268.38766Q570.64685 269.0283 570.64685 270.37204Q570.64685 271.7314 570.0531 272.38766Q569.45935 273.0283 568.4437 273.0283Q567.39685 273.0283 566.8031 272.38766Q566.225 271.7314 566.225 270.37204ZM567.70935 270.37204Q567.70935 271.3408 567.9437 271.6689Q568.1156 271.9189 568.4125 271.9189Q568.725 271.9189 568.8812 271.68454Q569.1156 271.3408 569.1156 270.37204Q569.1156 269.38766 568.89685 269.05954Q568.725 268.80954 568.4125 268.80954Q568.1 268.80954 567.9437 269.05954Q567.70935 269.38766 567.70935 270.37204Z" fill-rule="nonzero"/><path stroke="#757575" stroke-width="1.0" stroke-linecap="butt" d="M568.85 258.12204L462.85 258.12204L382.73172 258.12204" fill-rule="nonzero"/><path fill="#9e9e9e" d="M384.73172 258.12204C384.73172 257.01746 383.8363 256.12204 382.73172 256.12204C381.62717 256.12204 380.73172 257.01746 380.73172 258.12204C380.73172 259.2266 381.62717 260.12204 382.73172 260.12204C383.8363 260.12204 384.73172 259.2266 384.73172 258.12204" fill-rule="nonzero"/></svg>